<svg viewBox="0 0 820 280" xmlns="http://www.w3.org/2000/svg">
  <defs>
    <style>
      .glow  { animation: glow-pulse 3s ease-in-out infinite; }
      .sub   { font-family: 'Courier New', Courier, monospace; font-size: 13px; fill: #93c5fd; }
      .tag   { font-family: 'Courier New', Courier, monospace; font-size: 12px; fill: #3b82f6; font-style: italic; }
      .stat  { font-family: 'Courier New', Courier, monospace; font-size: 11px; fill: #94a3b8; }
      .dot   { fill: #22c55e; animation: blink 1.4s step-end infinite; }
      @keyframes glow-pulse {
        0%,100% { filter: drop-shadow(0 0 3px #2563eb) drop-shadow(0 0 7px #1d4ed8); }
        50%     { filter: drop-shadow(0 0 10px #3b82f6) drop-shadow(0 0 20px #2563eb) drop-shadow(0 0 30px #1e40af); }
      }
      @keyframes blink {
        0%,100% { opacity: 1; }
        50%     { opacity: 0; }
      }
    </style>
  </defs>

  <rect width="820" height="280" fill="#0d1117" rx="8"/>
  <line x1="0"   y1="2"   x2="820" y2="2"   stroke="#2563eb" stroke-width="2" opacity="0.3"/>
  <line x1="0"   y1="278" x2="820" y2="278" stroke="#2563eb" stroke-width="2" opacity="0.3"/>

  <g class="glow" fill="#60a5fa">
    <rect x="30" y="38" width="5" height="9"/>
    <rect x="36" y="38" width="5" height="9"/>
    <rect x="42" y="38" width="5" height="9"/>
    <rect x="48" y="38" width="5" height="9"/>
    <rect x="54" y="38" width="5" height="9"/>
    <rect x="60" y="38" width="5" height="9"/>
    <rect x="66" y="38" width="5" height="9"/>
    <rect x="72" y="38" width="5" height="9"/>
    <rect x="78" y="38" width="5" height="9"/>
    <rect x="84" y="38" width="5" height="9"/>
    <rect x="102" y="38" width="5" height="9"/>
    <rect x="108" y="38" width="5" height="9"/>
    <rect x="114" y="38" width="5" height="9"/>
    <rect x="120" y="38" width="5" height="9"/>
    <rect x="126" y="38" width="5" height="9"/>
    <rect x="132" y="38" width="5" height="9"/>
    <rect x="138" y="38" width="5" height="9"/>
    <rect x="144" y="38" width="5" height="9"/>
    <rect x="150" y="38" width="5" height="9"/>
    <rect x="156" y="38" width="5" height="9"/>
    <rect x="162" y="38" width="5" height="9"/>
    <rect x="168" y="38" width="5" height="9"/>
    <rect x="174" y="38" width="5" height="9"/>
    <rect x="180" y="38" width="5" height="9"/>
    <rect x="204" y="38" width="5" height="9"/>
    <rect x="210" y="38" width="5" height="9"/>
    <rect x="216" y="38" width="5" height="9"/>
    <rect x="228" y="38" width="5" height="9"/>
    <rect x="234" y="38" width="5" height="9"/>
    <rect x="240" y="38" width="5" height="9"/>
    <rect x="246" y="38" width="5" height="9"/>
    <rect x="252" y="38" width="5" height="9"/>
    <rect x="258" y="38" width="5" height="9"/>
    <rect x="270" y="38" width="5" height="9"/>
    <rect x="276" y="38" width="5" height="9"/>
    <rect x="282" y="38" width="5" height="9"/>
    <rect x="288" y="38" width="5" height="9"/>
    <rect x="312" y="38" width="5" height="9"/>
    <rect x="318" y="38" width="5" height="9"/>
    <rect x="324" y="38" width="5" height="9"/>
    <rect x="330" y="38" width="5" height="9"/>
    <rect x="336" y="38" width="5" height="9"/>
    <rect x="342" y="38" width="5" height="9"/>
    <rect x="348" y="38" width="5" height="9"/>
    <rect x="372" y="38" width="5" height="9"/>
    <rect x="378" y="38" width="5" height="9"/>
    <rect x="384" y="38" width="5" height="9"/>
    <rect x="390" y="38" width="5" height="9"/>
    <rect x="396" y="38" width="5" height="9"/>
    <rect x="402" y="38" width="5" height="9"/>
    <rect x="408" y="38" width="5" height="9"/>
    <rect x="414" y="38" width="5" height="9"/>
    <rect x="420" y="38" width="5" height="9"/>
    <rect x="426" y="38" width="5" height="9"/>
    <rect x="432" y="38" width="5" height="9"/>
    <rect x="24" y="50" width="5" height="9"/>
    <rect x="30" y="50" width="5" height="9"/>
    <rect x="36" y="50" width="5" height="9"/>
    <rect x="42" y="50" width="5" height="9"/>
    <rect x="48" y="50" width="5" height="9"/>
    <rect x="54" y="50" width="5" height="9"/>
    <rect x="60" y="50" width="5" height="9"/>
    <rect x="66" y="50" width="5" height="9"/>
    <rect x="72" y="50" width="5" height="9"/>
    <rect x="78" y="50" width="5" height="9"/>
    <rect x="84" y="50" width="5" height="9"/>
    <rect x="102" y="50" width="5" height="9"/>
    <rect x="108" y="50" width="5" height="9"/>
    <rect x="114" y="50" width="5" height="9"/>
    <rect x="120" y="50" width="5" height="9"/>
    <rect x="126" y="50" width="5" height="9"/>
    <rect x="132" y="50" width="5" height="9"/>
    <rect x="138" y="50" width="5" height="9"/>
    <rect x="144" y="50" width="5" height="9"/>
    <rect x="150" y="50" width="5" height="9"/>
    <rect x="156" y="50" width="5" height="9"/>
    <rect x="162" y="50" width="5" height="9"/>
    <rect x="168" y="50" width="5" height="9"/>
    <rect x="174" y="50" width="5" height="9"/>
    <rect x="180" y="50" width="5" height="9"/>
    <rect x="186" y="50" width="5" height="9"/>
    <rect x="198" y="50" width="5" height="9"/>
    <rect x="204" y="50" width="5" height="9"/>
    <rect x="210" y="50" width="5" height="9"/>
    <rect x="216" y="50" width="5" height="9"/>
    <rect x="222" y="50" width="5" height="9"/>
    <rect x="228" y="50" width="5" height="9"/>
    <rect x="234" y="50" width="5" height="9"/>
    <rect x="240" y="50" width="5" height="9"/>
    <rect x="246" y="50" width="5" height="9"/>
    <rect x="252" y="50" width="5" height="9"/>
    <rect x="258" y="50" width="5" height="9"/>
    <rect x="264" y="50" width="5" height="9"/>
    <rect x="270" y="50" width="5" height="9"/>
    <rect x="276" y="50" width="5" height="9"/>
    <rect x="282" y="50" width="5" height="9"/>
    <rect x="288" y="50" width="5" height="9"/>
    <rect x="294" y="50" width="5" height="9"/>
    <rect x="312" y="50" width="5" height="9"/>
    <rect x="318" y="50" width="5" height="9"/>
    <rect x="324" y="50" width="5" height="9"/>
    <rect x="330" y="50" width="5" height="9"/>
    <rect x="336" y="50" width="5" height="9"/>
    <rect x="342" y="50" width="5" height="9"/>
    <rect x="348" y="50" width="5" height="9"/>
    <rect x="354" y="50" width="5" height="9"/>
    <rect x="372" y="50" width="5" height="9"/>
    <rect x="378" y="50" width="5" height="9"/>
    <rect x="384" y="50" width="5" height="9"/>
    <rect x="390" y="50" width="5" height="9"/>
    <rect x="396" y="50" width="5" height="9"/>
    <rect x="402" y="50" width="5" height="9"/>
    <rect x="408" y="50" width="5" height="9"/>
    <rect x="414" y="50" width="5" height="9"/>
    <rect x="420" y="50" width="5" height="9"/>
    <rect x="426" y="50" width="5" height="9"/>
    <rect x="432" y="50" width="5" height="9"/>
    <rect x="24" y="62" width="5" height="9"/>
    <rect x="30" y="62" width="5" height="9"/>
    <rect x="36" y="62" width="5" height="9"/>
    <rect x="72" y="62" width="5" height="9"/>
    <rect x="78" y="62" width="5" height="9"/>
    <rect x="84" y="62" width="5" height="9"/>
    <rect x="90" y="62" width="5" height="9"/>
    <rect x="96" y="62" width="5" height="9"/>
    <rect x="102" y="62" width="5" height="9"/>
    <rect x="108" y="62" width="5" height="9"/>
    <rect x="114" y="62" width="5" height="9"/>
    <rect x="120" y="62" width="5" height="9"/>
    <rect x="126" y="62" width="5" height="9"/>
    <rect x="132" y="62" width="5" height="9"/>
    <rect x="138" y="62" width="5" height="9"/>
    <rect x="144" y="62" width="5" height="9"/>
    <rect x="150" y="62" width="5" height="9"/>
    <rect x="174" y="62" width="5" height="9"/>
    <rect x="180" y="62" width="5" height="9"/>
    <rect x="186" y="62" width="5" height="9"/>
    <rect x="192" y="62" width="5" height="9"/>
    <rect x="198" y="62" width="5" height="9"/>
    <rect x="204" y="62" width="5" height="9"/>
    <rect x="210" y="62" width="5" height="9"/>
    <rect x="222" y="62" width="5" height="9"/>
    <rect x="228" y="62" width="5" height="9"/>
    <rect x="234" y="62" width="5" height="9"/>
    <rect x="240" y="62" width="5" height="9"/>
    <rect x="246" y="62" width="5" height="9"/>
    <rect x="252" y="62" width="5" height="9"/>
    <rect x="258" y="62" width="5" height="9"/>
    <rect x="264" y="62" width="5" height="9"/>
    <rect x="270" y="62" width="5" height="9"/>
    <rect x="276" y="62" width="5" height="9"/>
    <rect x="282" y="62" width="5" height="9"/>
    <rect x="288" y="62" width="5" height="9"/>
    <rect x="294" y="62" width="5" height="9"/>
    <rect x="300" y="62" width="5" height="9"/>
    <rect x="312" y="62" width="5" height="9"/>
    <rect x="318" y="62" width="5" height="9"/>
    <rect x="324" y="62" width="5" height="9"/>
    <rect x="330" y="62" width="5" height="9"/>
    <rect x="336" y="62" width="5" height="9"/>
    <rect x="342" y="62" width="5" height="9"/>
    <rect x="348" y="62" width="5" height="9"/>
    <rect x="354" y="62" width="5" height="9"/>
    <rect x="360" y="62" width="5" height="9"/>
    <rect x="372" y="62" width="5" height="9"/>
    <rect x="378" y="62" width="5" height="9"/>
    <rect x="384" y="62" width="5" height="9"/>
    <rect x="390" y="62" width="5" height="9"/>
    <rect x="396" y="62" width="5" height="9"/>
    <rect x="402" y="62" width="5" height="9"/>
    <rect x="408" y="62" width="5" height="9"/>
    <rect x="414" y="62" width="5" height="9"/>
    <rect x="420" y="62" width="5" height="9"/>
    <rect x="24" y="74" width="5" height="9"/>
    <rect x="30" y="74" width="5" height="9"/>
    <rect x="36" y="74" width="5" height="9"/>
    <rect x="72" y="74" width="5" height="9"/>
    <rect x="78" y="74" width="5" height="9"/>
    <rect x="84" y="74" width="5" height="9"/>
    <rect x="90" y="74" width="5" height="9"/>
    <rect x="96" y="74" width="5" height="9"/>
    <rect x="102" y="74" width="5" height="9"/>
    <rect x="108" y="74" width="5" height="9"/>
    <rect x="114" y="74" width="5" height="9"/>
    <rect x="120" y="74" width="5" height="9"/>
    <rect x="126" y="74" width="5" height="9"/>
    <rect x="132" y="74" width="5" height="9"/>
    <rect x="138" y="74" width="5" height="9"/>
    <rect x="144" y="74" width="5" height="9"/>
    <rect x="150" y="74" width="5" height="9"/>
    <rect x="180" y="74" width="5" height="9"/>
    <rect x="186" y="74" width="5" height="9"/>
    <rect x="192" y="74" width="5" height="9"/>
    <rect x="198" y="74" width="5" height="9"/>
    <rect x="204" y="74" width="5" height="9"/>
    <rect x="222" y="74" width="5" height="9"/>
    <rect x="228" y="74" width="5" height="9"/>
    <rect x="234" y="74" width="5" height="9"/>
    <rect x="240" y="74" width="5" height="9"/>
    <rect x="246" y="74" width="5" height="9"/>
    <rect x="252" y="74" width="5" height="9"/>
    <rect x="258" y="74" width="5" height="9"/>
    <rect x="264" y="74" width="5" height="9"/>
    <rect x="270" y="74" width="5" height="9"/>
    <rect x="276" y="74" width="5" height="9"/>
    <rect x="282" y="74" width="5" height="9"/>
    <rect x="288" y="74" width="5" height="9"/>
    <rect x="294" y="74" width="5" height="9"/>
    <rect x="300" y="74" width="5" height="9"/>
    <rect x="306" y="74" width="5" height="9"/>
    <rect x="312" y="74" width="5" height="9"/>
    <rect x="318" y="74" width="5" height="9"/>
    <rect x="324" y="74" width="5" height="9"/>
    <rect x="330" y="74" width="5" height="9"/>
    <rect x="336" y="74" width="5" height="9"/>
    <rect x="342" y="74" width="5" height="9"/>
    <rect x="348" y="74" width="5" height="9"/>
    <rect x="354" y="74" width="5" height="9"/>
    <rect x="360" y="74" width="5" height="9"/>
    <rect x="366" y="74" width="5" height="9"/>
    <rect x="372" y="74" width="5" height="9"/>
    <rect x="378" y="74" width="5" height="9"/>
    <rect x="384" y="74" width="5" height="9"/>
    <rect x="390" y="74" width="5" height="9"/>
    <rect x="396" y="74" width="5" height="9"/>
    <rect x="402" y="74" width="5" height="9"/>
    <rect x="408" y="74" width="5" height="9"/>
    <rect x="414" y="74" width="5" height="9"/>
    <rect x="420" y="74" width="5" height="9"/>
    <rect x="24" y="86" width="5" height="9"/>
    <rect x="30" y="86" width="5" height="9"/>
    <rect x="36" y="86" width="5" height="9"/>
    <rect x="42" y="86" width="5" height="9"/>
    <rect x="48" y="86" width="5" height="9"/>
    <rect x="54" y="86" width="5" height="9"/>
    <rect x="60" y="86" width="5" height="9"/>
    <rect x="66" y="86" width="5" height="9"/>
    <rect x="72" y="86" width="5" height="9"/>
    <rect x="78" y="86" width="5" height="9"/>
    <rect x="84" y="86" width="5" height="9"/>
    <rect x="102" y="86" width="5" height="9"/>
    <rect x="108" y="86" width="5" height="9"/>
    <rect x="114" y="86" width="5" height="9"/>
    <rect x="120" y="86" width="5" height="9"/>
    <rect x="126" y="86" width="5" height="9"/>
    <rect x="132" y="86" width="5" height="9"/>
    <rect x="138" y="86" width="5" height="9"/>
    <rect x="144" y="86" width="5" height="9"/>
    <rect x="150" y="86" width="5" height="9"/>
    <rect x="156" y="86" width="5" height="9"/>
    <rect x="162" y="86" width="5" height="9"/>
    <rect x="186" y="86" width="5" height="9"/>
    <rect x="192" y="86" width="5" height="9"/>
    <rect x="198" y="86" width="5" height="9"/>
    <rect x="222" y="86" width="5" height="9"/>
    <rect x="228" y="86" width="5" height="9"/>
    <rect x="234" y="86" width="5" height="9"/>
    <rect x="252" y="86" width="5" height="9"/>
    <rect x="258" y="86" width="5" height="9"/>
    <rect x="264" y="86" width="5" height="9"/>
    <rect x="270" y="86" width="5" height="9"/>
    <rect x="276" y="86" width="5" height="9"/>
    <rect x="282" y="86" width="5" height="9"/>
    <rect x="294" y="86" width="5" height="9"/>
    <rect x="300" y="86" width="5" height="9"/>
    <rect x="306" y="86" width="5" height="9"/>
    <rect x="312" y="86" width="5" height="9"/>
    <rect x="318" y="86" width="5" height="9"/>
    <rect x="324" y="86" width="5" height="9"/>
    <rect x="330" y="86" width="5" height="9"/>
    <rect x="336" y="86" width="5" height="9"/>
    <rect x="342" y="86" width="5" height="9"/>
    <rect x="354" y="86" width="5" height="9"/>
    <rect x="360" y="86" width="5" height="9"/>
    <rect x="366" y="86" width="5" height="9"/>
    <rect x="372" y="86" width="5" height="9"/>
    <rect x="378" y="86" width="5" height="9"/>
    <rect x="384" y="86" width="5" height="9"/>
    <rect x="390" y="86" width="5" height="9"/>
    <rect x="396" y="86" width="5" height="9"/>
    <rect x="402" y="86" width="5" height="9"/>
    <rect x="408" y="86" width="5" height="9"/>
    <rect x="414" y="86" width="5" height="9"/>
    <rect x="420" y="86" width="5" height="9"/>
    <rect x="426" y="86" width="5" height="9"/>
    <rect x="432" y="86" width="5" height="9"/>
    <rect x="30" y="98" width="5" height="9"/>
    <rect x="36" y="98" width="5" height="9"/>
    <rect x="42" y="98" width="5" height="9"/>
    <rect x="48" y="98" width="5" height="9"/>
    <rect x="54" y="98" width="5" height="9"/>
    <rect x="60" y="98" width="5" height="9"/>
    <rect x="66" y="98" width="5" height="9"/>
    <rect x="72" y="98" width="5" height="9"/>
    <rect x="78" y="98" width="5" height="9"/>
    <rect x="84" y="98" width="5" height="9"/>
    <rect x="102" y="98" width="5" height="9"/>
    <rect x="108" y="98" width="5" height="9"/>
    <rect x="114" y="98" width="5" height="9"/>
    <rect x="120" y="98" width="5" height="9"/>
    <rect x="126" y="98" width="5" height="9"/>
    <rect x="132" y="98" width="5" height="9"/>
    <rect x="138" y="98" width="5" height="9"/>
    <rect x="144" y="98" width="5" height="9"/>
    <rect x="150" y="98" width="5" height="9"/>
    <rect x="156" y="98" width="5" height="9"/>
    <rect x="162" y="98" width="5" height="9"/>
    <rect x="186" y="98" width="5" height="9"/>
    <rect x="192" y="98" width="5" height="9"/>
    <rect x="198" y="98" width="5" height="9"/>
    <rect x="222" y="98" width="5" height="9"/>
    <rect x="228" y="98" width="5" height="9"/>
    <rect x="234" y="98" width="5" height="9"/>
    <rect x="252" y="98" width="5" height="9"/>
    <rect x="258" y="98" width="5" height="9"/>
    <rect x="264" y="98" width="5" height="9"/>
    <rect x="270" y="98" width="5" height="9"/>
    <rect x="276" y="98" width="5" height="9"/>
    <rect x="282" y="98" width="5" height="9"/>
    <rect x="300" y="98" width="5" height="9"/>
    <rect x="306" y="98" width="5" height="9"/>
    <rect x="312" y="98" width="5" height="9"/>
    <rect x="318" y="98" width="5" height="9"/>
    <rect x="324" y="98" width="5" height="9"/>
    <rect x="330" y="98" width="5" height="9"/>
    <rect x="336" y="98" width="5" height="9"/>
    <rect x="342" y="98" width="5" height="9"/>
    <rect x="360" y="98" width="5" height="9"/>
    <rect x="366" y="98" width="5" height="9"/>
    <rect x="372" y="98" width="5" height="9"/>
    <rect x="378" y="98" width="5" height="9"/>
    <rect x="384" y="98" width="5" height="9"/>
    <rect x="390" y="98" width="5" height="9"/>
    <rect x="396" y="98" width="5" height="9"/>
    <rect x="402" y="98" width="5" height="9"/>
    <rect x="408" y="98" width="5" height="9"/>
    <rect x="414" y="98" width="5" height="9"/>
    <rect x="420" y="98" width="5" height="9"/>
    <rect x="426" y="98" width="5" height="9"/>
    <rect x="432" y="98" width="5" height="9"/>
  </g>

  <line x1="14" y1="136" x2="806" y2="136" stroke="#1e293b" stroke-width="1"/>

  <text x="14" y="158" class="sub">W I N D O W S   S E C U R I T Y   R E S E A R C H   P R O J E C T</text>
  <text x="14" y="180" class="tag">"Named after someone worth protecting. Built so defenders can see what attackers see."</text>

  <line x1="14" y1="196" x2="806" y2="196" stroke="#1e293b" stroke-width="1"/>

  <text x="14" y="216" class="stat">MSRC  VULN-195458   ·   CERT IV CYBER SECURITY   ·   RESPONSIBLE DISCLOSURE</text>
  <text x="14" y="234" class="stat">OWN HARDWARE   ·   DEFENDER RTP ENABLED   ·   DOCUMENTED FINDINGS ONLY</text>

  <circle cx="796" cy="216" r="4" class="dot"/>
</svg>
